# xmcd
#
# Track frame offsets: 
#        150
#        15470
#        32797
#        54175
#        66417
#        82980
#        99705
#        117797
#        134712
#        153757
#        174337
#        194822
#
# Disc length: 3130 seconds
#
# Revision: 9
# Processed by: cddbd v1.5.2PL0 Copyright (c) Steve Scherf et al.
# Submitted via: ExactAudioCopy v1.3
#
DISCID=9c0c380c
DTITLE=Barenaked Ladies - Maroon
DYEAR=2000
DGENRE=Rock
TTITLE0=Too Little Too Late
TTITLE1=Never Do Anything
TTITLE2=Pinch Me
TTITLE3=Go Home
TTITLE4=Falling for the First Time
TTITLE5=Conventioneers
TTITLE6=Sell Sell Sell
TTITLE7=The Humour of the Situation
TTITLE8=Baby Seat
TTITLE9=Off the Hook
TTITLE10=Helicopters
TTITLE11=Tonight Is the Night I Fell Asleep at the Wheel
EXTD=
EXTT0=
EXTT1=
EXTT2=
EXTT3=
EXTT4=
EXTT5=
EXTT6=
EXTT7=
EXTT8=
EXTT9=
EXTT10=
EXTT11=
PLAYORDER=
